# xmcd CD database file
#
# Track frame offsets:
#	150
#	20301
#	37818
#	52630
#	79878
#	104786
#	125568
#	144981
#	165385
#	184597
#	204848
#
# Disc length: 2956 seconds
#
# Revision: 1
# Processed by: cddbd v1.5.2PL0 Copyright (c) Steve Scherf et al.
# Submitted via: CDex 1.79
#
DISCID=810b8a0b
DTITLE=Cardigans - Long Gone Before Daylight
DYEAR=2003
DGENRE=Blues
TTITLE0=Communication
TTITLE1=You're The Storm
TTITLE2=A Good Horse
TTITLE3=And Then You Kissed Me
TTITLE4=Couldn't Care Less
TTITLE5=Please Sister
TTITLE6=For What It's Worth
TTITLE7=Lead Me Into The Night
TTITLE8=Live And Learn
TTITLE9=Feathers And Down
TTITLE10=03.45: No Sleep
EXTD=YEAR: 2003
EXTT0=
EXTT1=
EXTT2=
EXTT3=
EXTT4=
EXTT5=
EXTT6=
EXTT7=
EXTT8=
EXTT9=
EXTT10=
PLAYORDER=
